<svg width="118" height="118" viewBox="0 0 118 118" fill="none" xmlns="http://www.w3.org/2000/svg">
<circle cx="59" cy="59" r="59" fill="#FFDFDB"/>
<path d="M70.6284 50.6216C70.826 50.8189 70.9828 51.0533 71.0897 51.3113C71.1966 51.5692 71.2517 51.8457 71.2517 52.125C71.2517 52.4043 71.1966 52.6808 71.0897 52.9387C70.9828 53.1967 70.826 53.4311 70.6284 53.6284L55.7534 68.5034C55.5561 68.701 55.3217 68.8578 55.0637 68.9647C54.8058 69.0716 54.5293 69.1267 54.25 69.1267C53.9707 69.1267 53.6942 69.0716 53.4363 68.9647C53.1783 68.8578 52.9439 68.701 52.7466 68.5034L46.3716 62.1284C45.9728 61.7297 45.7488 61.1889 45.7488 60.625C45.7488 60.0611 45.9728 59.5203 46.3716 59.1216C46.7703 58.7228 47.3111 58.4988 47.875 58.4988C48.4389 58.4988 48.9797 58.7228 49.3784 59.1216L54.25 63.9958L67.6216 50.6216C67.8189 50.424 68.0533 50.2672 68.3113 50.1603C68.5692 50.0534 68.8457 49.9983 69.125 49.9983C69.4043 49.9983 69.6808 50.0534 69.9387 50.1603C70.1967 50.2672 70.4311 50.424 70.6284 50.6216ZM84 37.25V79.75C84 80.8772 83.5522 81.9582 82.7552 82.7552C81.9582 83.5522 80.8772 84 79.75 84H37.25C36.1228 84 35.0418 83.5522 34.2448 82.7552C33.4478 81.9582 33 80.8772 33 79.75V37.25C33 36.1228 33.4478 35.0418 34.2448 34.2448C35.0418 33.4478 36.1228 33 37.25 33H79.75C80.8772 33 81.9582 33.4478 82.7552 34.2448C83.5522 35.0418 84 36.1228 84 37.25ZM79.75 79.75V37.25H37.25V79.75H79.75Z" fill="#F96B5A"/>
</svg>
