<svg width="118" height="118" viewBox="0 0 118 118" fill="none" xmlns="http://www.w3.org/2000/svg">
<circle cx="59" cy="59" r="59" fill="#FFDFDB"/>
<path d="M75.2937 49.3571C74.1767 49.3559 73.0772 49.6369 72.0962 50.1744C71.8028 49.2602 71.3189 48.4195 70.6769 47.7086C70.0348 46.9977 69.2494 46.4329 68.3731 46.0521C67.4968 45.6712 66.5498 45.483 65.5955 45.5C64.6411 45.5171 63.7014 45.739 62.839 46.1509V38.75C62.839 36.9598 62.1325 35.2429 60.8748 33.977C59.6171 32.7112 57.9113 32 56.1327 32C54.3541 32 52.6483 32.7112 51.3906 33.977C50.1329 35.2429 49.4264 36.9598 49.4264 38.75V58.0357L48.5114 56.5579C48.069 55.791 47.4809 55.1193 46.7806 54.5812C46.0803 54.0431 45.2815 53.649 44.4299 53.4216C42.7101 52.9622 40.8793 53.2094 39.3405 54.1087C37.8017 55.0079 36.6808 56.4856 36.2244 58.2167C35.7681 59.9478 36.0136 61.7904 36.9071 63.3393L38.0256 65.3233C46.2672 79.9467 49.6778 86 60.9229 86C66.511 85.9936 71.8683 83.7565 75.8197 79.7794C79.771 75.8024 81.9937 70.4101 82 64.7857V56.1071C82 54.3169 81.2934 52.6 80.0358 51.3342C78.7781 50.0683 77.0723 49.3571 75.2937 49.3571ZM78.1678 64.7857C78.1627 69.3876 76.3442 73.7994 73.1113 77.0534C69.8784 80.3074 65.495 82.1378 60.9229 82.1429C51.9101 82.1429 49.4647 77.8036 41.3596 63.4164L40.2363 61.4228V61.4107C39.8549 60.747 39.7509 59.958 39.9471 59.2171C40.1434 58.4762 40.6239 57.8441 41.2829 57.4596C41.7195 57.205 42.2155 57.0719 42.72 57.0738C43.2253 57.0731 43.7218 57.2064 44.1595 57.4603C44.5972 57.7143 44.9607 58.0799 45.2133 58.5203C45.2231 58.5396 45.2343 58.5581 45.2469 58.5757L49.7186 65.8079C49.9393 66.1625 50.2686 66.4353 50.6568 66.5851C51.0451 66.7348 51.4712 66.7534 51.8708 66.638C52.2705 66.5226 52.622 66.2795 52.8723 65.9453C53.1227 65.6112 53.2582 65.2042 53.2586 64.7857V38.75C53.2586 37.9828 53.5614 37.247 54.1004 36.7044C54.6394 36.1619 55.3704 35.8571 56.1327 35.8571C56.895 35.8571 57.626 36.1619 58.165 36.7044C58.704 37.247 59.0068 37.9828 59.0068 38.75V55.1429C59.0068 55.6543 59.2087 56.1449 59.5681 56.5066C59.9274 56.8682 60.4148 57.0714 60.9229 57.0714C61.4311 57.0714 61.9185 56.8682 62.2778 56.5066C62.6372 56.1449 62.839 55.6543 62.839 55.1429V52.25C62.839 51.4828 63.1418 50.747 63.6809 50.2044C64.2199 49.6619 64.9509 49.3571 65.7132 49.3571C66.4754 49.3571 67.2065 49.6619 67.7455 50.2044C68.2845 50.747 68.5873 51.4828 68.5873 52.25V57.0714C68.5873 57.5829 68.7892 58.0735 69.1485 58.4351C69.5079 58.7968 69.9952 59 70.5034 59C71.0116 59 71.499 58.7968 71.8583 58.4351C72.2176 58.0735 72.4195 57.5829 72.4195 57.0714V56.1071C72.4195 55.3399 72.7223 54.6041 73.2613 54.0616C73.8003 53.5191 74.5314 53.2143 75.2937 53.2143C76.0559 53.2143 76.787 53.5191 77.326 54.0616C77.865 54.6041 78.1678 55.3399 78.1678 56.1071V64.7857Z" fill="#F96B5A"/>
</svg>
