<svg width="118" height="118" viewBox="0 0 118 118" fill="none" xmlns="http://www.w3.org/2000/svg">
<circle cx="59" cy="59" r="59" fill="#FFDFDB"/>
<path d="M80.8438 53.3795C80.0022 52.5 79.1317 51.5938 78.8036 50.7969C78.5 50.067 78.4821 48.8571 78.4643 47.6853C78.4308 45.5067 78.3951 43.0379 76.6786 41.3214C74.9621 39.6049 72.4933 39.5692 70.3147 39.5357C69.1429 39.5179 67.933 39.5 67.2031 39.1964C66.4085 38.8683 65.5 37.9978 64.6205 37.1562C63.0804 35.6763 61.3304 34 59 34C56.6696 34 54.9219 35.6763 53.3795 37.1562C52.5 37.9978 51.5938 38.8683 50.7969 39.1964C50.0714 39.5 48.8571 39.5179 47.6853 39.5357C45.5067 39.5692 43.0379 39.6049 41.3214 41.3214C39.6049 43.0379 39.5804 45.5067 39.5357 47.6853C39.5179 48.8571 39.5 50.067 39.1964 50.7969C38.8683 51.5915 37.9978 52.5 37.1562 53.3795C35.6763 54.9196 34 56.6696 34 59C34 61.3304 35.6763 63.0781 37.1562 64.6205C37.9978 65.5 38.8683 66.4062 39.1964 67.2031C39.5 67.933 39.5179 69.1429 39.5357 70.3147C39.5692 72.4933 39.6049 74.9621 41.3214 76.6786C43.0379 78.3951 45.5067 78.4308 47.6853 78.4643C48.8571 78.4821 50.067 78.5 50.7969 78.8036C51.5915 79.1317 52.5 80.0022 53.3795 80.8438C54.9196 82.3237 56.6696 84 59 84C61.3304 84 63.0781 82.3237 64.6205 80.8438C65.5 80.0022 66.4062 79.1317 67.2031 78.8036C67.933 78.5 69.1429 78.4821 70.3147 78.4643C72.4933 78.4308 74.9621 78.3951 76.6786 76.6786C78.3951 74.9621 78.4308 72.4933 78.4643 70.3147C78.4821 69.1429 78.5 67.933 78.8036 67.2031C79.1317 66.4085 80.0022 65.5 80.8438 64.6205C82.3237 63.0804 84 61.3304 84 59C84 56.6696 82.3237 54.9219 80.8438 53.3795ZM78.2656 62.1496C77.1964 63.2656 76.0893 64.4196 75.5022 65.8371C74.9397 67.1987 74.9152 68.7545 74.8929 70.2612C74.8705 71.8237 74.846 73.4598 74.1518 74.1518C73.4576 74.8438 71.8326 74.8705 70.2612 74.8929C68.7545 74.9152 67.1987 74.9397 65.8371 75.5022C64.4196 76.0893 63.2656 77.1964 62.1496 78.2656C61.0335 79.3348 59.8929 80.4286 59 80.4286C58.1071 80.4286 56.9576 79.3304 55.8504 78.2656C54.7433 77.2009 53.5804 76.0893 52.1629 75.5022C50.8013 74.9397 49.2455 74.9152 47.7388 74.8929C46.1763 74.8705 44.5402 74.846 43.8482 74.1518C43.1562 73.4576 43.1295 71.8326 43.1071 70.2612C43.0848 68.7545 43.0603 67.1987 42.4978 65.8371C41.9107 64.4196 40.8036 63.2656 39.7344 62.1496C38.6652 61.0335 37.5714 59.8929 37.5714 59C37.5714 58.1071 38.6696 56.9576 39.7344 55.8504C40.7991 54.7433 41.9107 53.5804 42.4978 52.1629C43.0603 50.8013 43.0848 49.2455 43.1071 47.7388C43.1295 46.1763 43.154 44.5402 43.8482 43.8482C44.5424 43.1562 46.1674 43.1295 47.7388 43.1071C49.2455 43.0848 50.8013 43.0603 52.1629 42.4978C53.5804 41.9107 54.7344 40.8036 55.8504 39.7344C56.9665 38.6652 58.1071 37.5714 59 37.5714C59.8929 37.5714 61.0424 38.6696 62.1496 39.7344C63.2567 40.7991 64.4196 41.9107 65.8371 42.4978C67.1987 43.0603 68.7545 43.0848 70.2612 43.1071C71.8237 43.1295 73.4598 43.154 74.1518 43.8482C74.8438 44.5424 74.8705 46.1674 74.8929 47.7388C74.9152 49.2455 74.9397 50.8013 75.5022 52.1629C76.0893 53.5804 77.1964 54.7344 78.2656 55.8504C79.3348 56.9665 80.4286 58.1071 80.4286 59C80.4286 59.8929 79.3304 61.0424 78.2656 62.1496ZM69.192 52.3795C69.358 52.5453 69.4897 52.7423 69.5796 52.959C69.6694 53.1758 69.7157 53.4082 69.7157 53.6429C69.7157 53.8775 69.6694 54.1099 69.5796 54.3267C69.4897 54.5435 69.358 54.7404 69.192 54.9062L56.692 67.4062C56.5261 67.5723 56.3292 67.704 56.1124 67.7939C55.8956 67.8837 55.6632 67.93 55.4286 67.93C55.1939 67.93 54.9615 67.8837 54.7447 67.7939C54.528 67.704 54.331 67.5723 54.1652 67.4062L48.808 62.0491C48.473 61.714 48.2847 61.2596 48.2847 60.7857C48.2847 60.3118 48.473 59.8574 48.808 59.5223C49.1431 59.1872 49.5976 58.999 50.0714 58.999C50.5453 58.999 50.9998 59.1872 51.3348 59.5223L55.4286 63.6183L66.6652 52.3795C66.831 52.2134 67.028 52.0817 67.2448 51.9919C67.4615 51.902 67.6939 51.8557 67.9286 51.8557C68.1632 51.8557 68.3956 51.902 68.6124 51.9919C68.8292 52.0817 69.0261 52.2134 69.192 52.3795Z" fill="#F96B5A"/>
</svg>
