<svg width="118" height="118" viewBox="0 0 118 118" fill="none" xmlns="http://www.w3.org/2000/svg">
<circle cx="59" cy="59" r="59" fill="#FFDFDB"/>
<path d="M80.4286 41H37.5714C36.6242 41 35.7158 41.3793 35.046 42.0544C34.3763 42.7295 34 43.6452 34 44.6V73.4C34 74.3548 34.3763 75.2705 35.046 75.9456C35.7158 76.6207 36.6242 77 37.5714 77H80.4286C81.3758 77 82.2842 76.6207 82.954 75.9456C83.6237 75.2705 84 74.3548 84 73.4V44.6C84 43.6452 83.6237 42.7295 82.954 42.0544C82.2842 41.3793 81.3758 41 80.4286 41ZM80.4286 44.6V50H37.5714V44.6H80.4286ZM80.4286 73.4H37.5714V53.6H80.4286V73.4ZM76.8571 68C76.8571 68.4774 76.669 68.9352 76.3341 69.2728C75.9992 69.6104 75.545 69.8 75.0714 69.8H67.9286C67.455 69.8 67.0008 69.6104 66.6659 69.2728C66.331 68.9352 66.1429 68.4774 66.1429 68C66.1429 67.5226 66.331 67.0648 66.6659 66.7272C67.0008 66.3896 67.455 66.2 67.9286 66.2H75.0714C75.545 66.2 75.9992 66.3896 76.3341 66.7272C76.669 67.0648 76.8571 67.5226 76.8571 68ZM62.5714 68C62.5714 68.4774 62.3833 68.9352 62.0484 69.2728C61.7135 69.6104 61.2593 69.8 60.7857 69.8H57.2143C56.7407 69.8 56.2865 69.6104 55.9516 69.2728C55.6167 68.9352 55.4286 68.4774 55.4286 68C55.4286 67.5226 55.6167 67.0648 55.9516 66.7272C56.2865 66.3896 56.7407 66.2 57.2143 66.2H60.7857C61.2593 66.2 61.7135 66.3896 62.0484 66.7272C62.3833 67.0648 62.5714 67.5226 62.5714 68Z" fill="#F96B5A"/>
</svg>
