<svg width="278" height="195" viewBox="0 0 278 195" fill="none" xmlns="http://www.w3.org/2000/svg">
<path fill-rule="evenodd" clip-rule="evenodd" d="M93.6041 10.8719C89.7018 10.8719 86.5385 14.08 86.5385 18.0374C86.5385 21.9948 89.7018 25.2029 93.6041 25.2029C97.5063 25.2029 100.67 21.9948 100.67 18.0374C100.67 14.08 97.5063 10.8719 93.6041 10.8719ZM75.8182 18.0374C75.8182 8.07562 83.7812 0 93.6041 0C103.427 0 111.39 8.07562 111.39 18.0374C111.39 26.1955 106.049 33.0886 98.7206 35.3173V69.6787C98.7206 73.7726 101.993 77.0913 106.03 77.0913C110.067 77.0913 113.339 73.7726 113.339 69.6787V30.6389C113.339 20.5406 121.411 12.3544 131.369 12.3544C141.326 12.3544 149.398 20.5406 149.398 30.6389V70.1729C149.398 74.2667 152.671 77.5855 156.708 77.5855C160.744 77.5855 164.017 74.2667 164.017 70.1729L164.016 30.6389C164.016 20.5406 172.089 12.3544 182.046 12.3544C192.004 12.3544 200.076 20.5406 200.076 30.6388L200.076 79.068C200.076 82.0702 197.676 84.5039 194.716 84.5039C191.755 84.504 189.355 82.0702 189.355 79.068L189.355 30.6389C189.355 26.545 186.083 23.2262 182.046 23.2262C178.009 23.2262 174.737 26.545 174.737 30.6389L174.737 70.1729C174.737 80.2711 166.665 88.4573 156.708 88.4573C146.75 88.4573 138.678 80.2711 138.678 70.1729V30.6389C138.678 26.545 135.405 23.2262 131.369 23.2262C127.332 23.2262 124.059 26.545 124.059 30.6389L124.059 69.6787C124.059 79.7769 115.987 87.9632 106.03 87.9632C96.0724 87.9632 88.0003 79.7769 88.0003 69.6787V35.1613C80.9231 32.7805 75.8182 26.0136 75.8182 18.0374Z" fill="#F96B5A"/>
<path d="M46.5039 195C45.2262 192.919 44.2315 190.747 43.5196 188.484C42.8078 186.202 42.4519 183.701 42.4519 180.982C42.4519 178.28 42.8078 175.789 43.5196 173.507C44.2315 171.225 45.2262 169.044 46.5039 166.963L48.4752 167.839C47.307 169.811 46.44 171.928 45.8742 174.191C45.3266 176.437 45.0528 178.7 45.0528 180.982C45.0528 183.282 45.3266 185.554 45.8742 187.799C46.44 190.044 47.307 192.153 48.4752 194.124L46.5039 195Z" fill="#5A5A5A"/>
<path d="M60.7257 169.4H63.2172V170.304C63.2172 171.198 63.0529 172.047 62.7244 172.85C62.4141 173.635 61.9578 174.374 61.3554 175.068C60.7531 175.743 60.0412 176.345 59.2199 176.875C58.4168 177.404 57.5133 177.851 56.5094 178.216C55.5237 178.581 54.4651 178.855 53.3334 179.038L52.2657 176.765C53.2513 176.637 54.1639 176.427 55.0035 176.135C55.8614 175.843 56.6371 175.487 57.3307 175.068C58.0426 174.648 58.6449 174.182 59.1377 173.671C59.6488 173.16 60.0412 172.622 60.315 172.056C60.5888 171.49 60.7257 170.906 60.7257 170.304V169.4ZM61.4923 169.4H63.9838V170.304C63.9838 170.906 64.1115 171.49 64.3671 172.056C64.6409 172.622 65.0333 173.16 65.5444 173.671C66.0554 174.182 66.6578 174.648 67.3514 175.068C68.045 175.487 68.8207 175.843 69.6786 176.135C70.5364 176.427 71.4582 176.637 72.4438 176.765L71.3761 179.038C70.2444 178.855 69.1766 178.581 68.1727 178.216C67.1871 177.851 66.2836 177.404 65.4622 176.875C64.6409 176.345 63.929 175.743 63.3267 175.068C62.7426 174.374 62.2863 173.635 61.9577 172.85C61.6475 172.047 61.4923 171.198 61.4923 170.304V169.4ZM60.8626 182.433H63.71V191.797H60.8626V182.433ZM51.0336 180.845H73.6485V183.172H51.0336V180.845ZM53.1144 168.223H71.5403V170.495H53.1144V168.223Z" fill="#5A5A5A"/>
<path d="M78.1912 195L76.22 194.124C77.3881 192.153 78.2551 190.044 78.8209 187.799C79.3868 185.554 79.6697 183.282 79.6697 180.982C79.6697 178.7 79.3868 176.437 78.8209 174.191C78.2551 171.928 77.3881 169.811 76.22 167.839L78.1912 166.963C79.4872 169.044 80.4911 171.225 81.2029 173.507C81.9147 175.789 82.2707 178.28 82.2707 180.982C82.2707 183.701 81.9147 186.202 81.2029 188.484C80.4911 190.747 79.4872 192.919 78.1912 195Z" fill="#5A5A5A"/>
<path d="M92.6594 168.606C93.9006 168.606 94.9957 168.971 95.9449 169.701C96.9123 170.431 97.6697 171.453 98.2173 172.768C98.7831 174.082 99.0661 175.643 99.0661 177.45C99.0661 179.238 98.7831 180.799 98.2173 182.132C97.6697 183.446 96.9123 184.468 95.9449 185.198C94.9957 185.91 93.9006 186.266 92.6594 186.266C91.4 186.266 90.2866 185.91 89.3192 185.198C88.3701 184.468 87.6126 183.446 87.0468 182.132C86.4992 180.799 86.2254 179.238 86.2254 177.45C86.2254 175.643 86.4992 174.082 87.0468 172.768C87.6126 171.453 88.3701 170.431 89.3192 169.701C90.2866 168.971 91.4 168.606 92.6594 168.606ZM92.6594 171.207C91.9293 171.207 91.2814 171.454 90.7155 171.946C90.168 172.439 89.739 173.151 89.4287 174.082C89.1367 175.013 88.9907 176.126 88.9907 177.422C88.9907 178.736 89.1367 179.859 89.4287 180.79C89.739 181.721 90.168 182.442 90.7155 182.953C91.2814 183.446 91.9293 183.692 92.6594 183.692C93.3713 183.692 94.001 183.446 94.5486 182.953C95.1144 182.442 95.5433 181.721 95.8354 180.79C96.1457 179.859 96.3008 178.736 96.3008 177.422C96.3008 176.126 96.1457 175.013 95.8354 174.082C95.5433 173.151 95.1144 172.439 94.5486 171.946C94.001 171.454 93.3713 171.207 92.6594 171.207ZM102.488 166.799H105.363V191.824H102.488V166.799ZM104.733 176.546H109.251V178.928H104.733V176.546Z" fill="#5A5A5A"/>
<path d="M128.879 166.772H131.754V191.851H128.879V166.772ZM118.448 168.606C119.689 168.606 120.794 168.971 121.761 169.701C122.747 170.431 123.513 171.453 124.061 172.768C124.608 174.082 124.882 175.633 124.882 177.422C124.882 179.229 124.608 180.799 124.061 182.132C123.513 183.446 122.747 184.468 121.761 185.198C120.794 185.91 119.689 186.266 118.448 186.266C117.207 186.266 116.094 185.91 115.108 185.198C114.141 184.468 113.374 183.446 112.808 182.132C112.26 180.799 111.987 179.229 111.987 177.422C111.987 175.633 112.26 174.082 112.808 172.768C113.374 171.453 114.141 170.431 115.108 169.701C116.094 168.971 117.207 168.606 118.448 168.606ZM118.448 171.207C117.718 171.207 117.07 171.454 116.504 171.946C115.957 172.439 115.528 173.151 115.217 174.082C114.907 175.013 114.752 176.126 114.752 177.422C114.752 178.736 114.907 179.859 115.217 180.79C115.528 181.721 115.957 182.442 116.504 182.953C117.07 183.446 117.718 183.692 118.448 183.692C119.178 183.692 119.817 183.446 120.365 182.953C120.912 182.442 121.341 181.721 121.651 180.79C121.962 179.859 122.117 178.736 122.117 177.422C122.117 176.126 121.962 175.013 121.651 174.082C121.341 173.151 120.912 172.439 120.365 171.946C119.817 171.454 119.178 171.207 118.448 171.207Z" fill="#5A5A5A"/>
<path d="M146.673 172.959H150.78V175.314H146.673V172.959ZM154.805 166.799H157.543V181.228H154.805V166.799ZM149.986 167.292H152.669V180.982H149.986V167.292ZM140.869 182.378H157.543V191.495H140.869V182.378ZM154.75 184.65H143.689V189.223H154.75V184.65ZM142.211 168.277C143.324 168.277 144.31 168.524 145.168 169.017C146.026 169.51 146.701 170.203 147.194 171.098C147.687 171.974 147.933 172.996 147.933 174.164C147.933 175.314 147.687 176.327 147.194 177.203C146.701 178.079 146.026 178.773 145.168 179.284C144.31 179.777 143.324 180.023 142.211 180.023C141.116 180.023 140.13 179.777 139.254 179.284C138.396 178.773 137.721 178.079 137.228 177.203C136.753 176.327 136.516 175.314 136.516 174.164C136.516 172.996 136.753 171.974 137.228 171.098C137.721 170.203 138.396 169.51 139.254 169.017C140.13 168.524 141.116 168.277 142.211 168.277ZM142.211 170.632C141.608 170.632 141.07 170.778 140.595 171.07C140.139 171.362 139.774 171.773 139.5 172.302C139.226 172.813 139.09 173.434 139.09 174.164C139.09 174.858 139.226 175.469 139.5 175.999C139.774 176.528 140.148 176.939 140.623 177.231C141.097 177.523 141.627 177.669 142.211 177.669C142.831 177.669 143.37 177.523 143.826 177.231C144.301 176.939 144.666 176.528 144.921 175.999C145.195 175.469 145.332 174.858 145.332 174.164C145.332 173.434 145.195 172.813 144.921 172.302C144.666 171.773 144.301 171.362 143.826 171.07C143.37 170.778 142.831 170.632 142.211 170.632Z" fill="#5A5A5A"/>
<path d="M161.538 186.512H184.208V188.867H161.538V186.512ZM171.394 181.42H174.269V187.471H171.394V181.42ZM164.221 168.524H181.525V176.464H167.096V181.091H164.276V174.191H178.677V170.851H164.221V168.524ZM164.276 179.941H182.1V182.241H164.276V179.941Z" fill="#5A5A5A"/>
<path d="M193.076 170.523H195.376V174.027C195.376 175.414 195.212 176.774 194.883 178.107C194.555 179.421 194.071 180.662 193.432 181.83C192.812 182.999 192.063 184.03 191.187 184.924C190.311 185.819 189.344 186.531 188.285 187.06L186.615 184.787C187.582 184.331 188.458 183.72 189.243 182.953C190.046 182.186 190.731 181.319 191.297 180.352C191.862 179.366 192.301 178.335 192.611 177.258C192.921 176.181 193.076 175.104 193.076 174.027V170.523ZM193.679 170.523H195.978V174.027C195.978 175.068 196.134 176.099 196.444 177.121C196.754 178.143 197.192 179.111 197.758 180.023C198.324 180.936 198.999 181.748 199.784 182.46C200.569 183.172 201.454 183.738 202.44 184.158L200.852 186.43C199.757 185.937 198.771 185.271 197.895 184.431C197.019 183.592 196.261 182.624 195.622 181.529C195.002 180.416 194.518 179.229 194.171 177.97C193.843 176.692 193.679 175.378 193.679 174.027V170.523ZM187.518 169.263H201.536V171.645H187.518V169.263ZM204.438 166.799H207.313V191.824H204.438V166.799Z" fill="#5A5A5A"/>
<path d="M222.588 173.261H226.641V175.56H222.588V173.261ZM212.979 178.736H214.621C215.881 178.736 216.994 178.727 217.961 178.709C218.929 178.673 219.851 178.609 220.727 178.517C221.603 178.426 222.506 178.298 223.437 178.134L223.684 180.407C222.753 180.571 221.831 180.699 220.918 180.79C220.024 180.881 219.066 180.945 218.044 180.982C217.04 181 215.899 181.009 214.621 181.009H212.979V178.736ZM212.979 168.496H222.397V170.796H215.744V179.75H212.979V168.496ZM214.895 173.562H221.466V175.779H214.895V173.562ZM216.072 183.446H233.102V191.824H230.255V185.718H216.072V183.446ZM230.364 166.799H233.102V182.351H230.364V166.799ZM225.491 167.292H228.201V182.159H225.491V167.292Z" fill="#5A5A5A"/>
<path fill-rule="evenodd" clip-rule="evenodd" d="M2.82438 115.837C4.38425 115.837 5.64877 117.176 5.64877 118.828V133.785C5.64877 136.853 7.99716 139.34 10.8941 139.34H32.0769C33.6368 139.34 34.9013 140.679 34.9013 142.331C34.9013 143.984 33.6368 145.323 32.0769 145.323H10.8941C4.87743 145.323 0 140.157 0 133.785V118.828C0 117.176 1.26452 115.837 2.82438 115.837ZM35.91 127.375C35.91 121.003 40.7874 115.837 46.8041 115.837H61.3295C67.3461 115.837 72.2235 121.003 72.2235 127.375V133.785C72.2235 140.157 67.3461 145.323 61.3295 145.323H46.8041C40.7874 145.323 35.91 140.157 35.91 133.785V127.375ZM46.8041 121.82C43.9072 121.82 41.5588 124.307 41.5588 127.375V133.785C41.5588 136.853 43.9072 139.34 46.8041 139.34H61.3295C64.2264 139.34 66.5747 136.853 66.5747 133.785V127.375C66.5747 124.307 64.2264 121.82 61.3295 121.82H46.8041ZM86.3454 121.82C83.4485 121.82 81.1001 124.307 81.1001 127.375V133.144C81.1001 136.496 83.7041 139.34 86.3454 139.34H104.099C104.676 139.34 105.358 139.03 105.963 138.294C106.575 137.551 106.923 136.58 106.923 135.708C106.923 134.056 105.659 132.717 104.099 132.717H89.9768C88.4169 132.717 87.1524 131.377 87.1524 129.725C87.1524 128.073 88.4169 126.734 89.9768 126.734H104.099C108.778 126.734 112.572 130.752 112.572 135.708C112.572 138.14 111.656 140.481 110.223 142.223C108.784 143.973 106.641 145.323 104.099 145.323H86.3454C80.0733 145.323 75.4514 139.232 75.4514 133.144V127.375C75.4514 121.003 80.3288 115.837 86.3454 115.837H108.94C110.5 115.837 111.765 117.176 111.765 118.828C111.765 120.48 110.5 121.82 108.94 121.82H86.3454ZM118.019 115.837C119.579 115.837 120.843 117.176 120.843 118.828V142.331C120.843 143.984 119.579 145.323 118.019 145.323C116.459 145.323 115.194 143.984 115.194 142.331V118.828C115.194 117.176 116.459 115.837 118.019 115.837ZM123.466 118.828C123.466 117.176 124.73 115.837 126.29 115.837H156.955C158.515 115.837 159.779 117.176 159.779 118.828C159.779 120.48 158.515 121.82 156.955 121.82H149.289C146.615 121.82 144.447 124.115 144.447 126.948V142.331C144.447 143.984 143.182 145.323 141.623 145.323C140.063 145.323 138.798 143.984 138.798 142.331V126.948C138.798 125.098 139.225 123.354 139.98 121.82H126.29C124.73 121.82 123.466 120.48 123.466 118.828ZM244.107 115.837C245.667 115.837 246.932 117.176 246.932 118.828V126.734H267.913C269.473 126.734 270.737 128.073 270.737 129.725C270.737 131.377 269.473 132.717 267.913 132.717H246.932V142.331C246.932 143.984 245.667 145.323 244.107 145.323C242.548 145.323 241.283 143.984 241.283 142.331V118.828C241.283 117.176 242.548 115.837 244.107 115.837ZM275.176 115.837C276.735 115.837 278 117.176 278 118.828V142.331C278 143.984 276.735 145.323 275.176 145.323C273.616 145.323 272.351 143.984 272.351 142.331V118.828C272.351 117.176 273.616 115.837 275.176 115.837ZM171.884 122.033C168.987 122.033 166.639 124.52 166.639 127.589V133.785C166.639 136.853 168.987 139.34 171.884 139.34H195.689C197.249 139.34 198.514 140.679 198.514 142.331C198.514 143.984 197.249 145.323 195.689 145.323H171.884C165.867 145.323 160.99 140.157 160.99 133.785V127.589C160.99 121.216 165.867 116.051 171.884 116.051H195.689C197.249 116.051 198.514 117.39 198.514 119.042C198.514 120.694 197.249 122.033 195.689 122.033H171.884ZM211.022 122.033C208.125 122.033 205.776 124.52 205.776 127.589V133.785C205.776 136.853 208.125 139.34 211.022 139.34H234.827C236.387 139.34 237.652 140.679 237.652 142.331C237.652 143.984 236.387 145.323 234.827 145.323H211.022C205.005 145.323 200.128 140.157 200.128 133.785V127.589C200.128 121.216 205.005 116.051 211.022 116.051H234.827C236.387 116.051 237.652 117.39 237.652 119.042C237.652 120.694 236.387 122.033 234.827 122.033H211.022ZM171.077 129.725C171.077 128.073 172.341 126.734 173.901 126.734H192.462C194.021 126.734 195.286 128.073 195.286 129.725C195.286 131.377 194.021 132.717 192.462 132.717H173.901C172.341 132.717 171.077 131.377 171.077 129.725Z" fill="#F96B5A"/>
</svg>
