<svg width="32" height="39" viewBox="0 0 32 39" fill="none" xmlns="http://www.w3.org/2000/svg">
<path d="M29.0909 2.88865H22.4982C21.6809 1.97995 20.6796 1.25291 19.5598 0.755112C18.4399 0.257319 17.2269 0 16 0C14.7731 0 13.5601 0.257319 12.4402 0.755112C11.3204 1.25291 10.3191 1.97995 9.50182 2.88865H2.90909C2.13755 2.88865 1.39761 3.19301 0.852053 3.73479C0.306493 4.27656 0 5.01137 0 5.77756V36.1111C0 36.8773 0.306493 37.6121 0.852053 38.1539C1.39761 38.6956 2.13755 39 2.90909 39H29.0909C29.8624 39 30.6024 38.6956 31.1479 38.1539C31.6935 37.6121 32 36.8773 32 36.1111V5.77756C32 5.01137 31.6935 4.27656 31.1479 3.73479C30.6024 3.19301 29.8624 2.88865 29.0909 2.88865ZM16 2.88865C17.5431 2.88865 19.023 3.49738 20.1141 4.58093C21.2052 5.66448 21.8182 7.13409 21.8182 8.66646H10.1818C10.1818 7.13409 10.7948 5.66448 11.8859 4.58093C12.977 3.49738 14.4569 2.88865 16 2.88865ZM29.0909 36.1111H2.90909V5.77756H7.77273C7.44185 6.70528 7.27276 7.68227 7.27273 8.66646V10.1109C7.27273 10.494 7.42597 10.8614 7.69875 11.1323C7.97153 11.4032 8.3415 11.5554 8.72727 11.5554H23.2727C23.6585 11.5554 24.0285 11.4032 24.3012 11.1323C24.574 10.8614 24.7273 10.494 24.7273 10.1109V8.66646C24.7272 7.68227 24.5581 6.70528 24.2273 5.77756H29.0909V36.1111Z" fill="black"/>
</svg>
