<svg width="50" height="46" viewBox="0 0 50 46" fill="none" xmlns="http://www.w3.org/2000/svg">
<path d="M26.7881 23.9176V36.799C26.7881 37.2871 26.6 37.7551 26.2651 38.1002C25.9302 38.4453 25.476 38.6392 25.0024 38.6392C24.5288 38.6392 24.0746 38.4453 23.7397 38.1002C23.4048 37.7551 23.2167 37.2871 23.2167 36.799V23.9176C23.2167 23.4296 23.4048 22.9615 23.7397 22.6164C24.0746 22.2713 24.5288 22.0774 25.0024 22.0774C25.476 22.0774 25.9302 22.2713 26.2651 22.6164C26.6 22.9615 26.7881 23.4296 26.7881 23.9176ZM49.971 18.8824L46.8773 42.8073C46.7626 43.6915 46.3402 44.5026 45.6886 45.0899C45.037 45.6772 44.2006 46.0006 43.3349 46H6.66986C5.8042 46.0006 4.96779 45.6772 4.31619 45.0899C3.66459 44.5026 3.24216 43.6915 3.12746 42.8073L0.0314895 18.8847C-0.0359772 18.3646 0.00525438 17.8356 0.152418 17.3333C0.299582 16.831 0.549277 16.3669 0.884755 15.9722C1.22023 15.5774 1.63374 15.2612 2.09754 15.0447C2.56134 14.8281 3.06471 14.7163 3.57389 14.7166H11.6922L23.6631 0.623021C23.8307 0.427212 24.0368 0.270389 24.2677 0.162972C24.4986 0.0555538 24.749 0 25.0024 0C25.2557 0 25.5062 0.0555538 25.7371 0.162972C25.968 0.270389 26.1741 0.427212 26.3417 0.623021L38.3126 14.7166H46.4309C46.9395 14.717 47.4421 14.8292 47.9052 15.0459C48.3683 15.2626 48.7811 15.5788 49.1161 15.9731C49.451 16.3675 49.7004 16.8311 49.8474 17.3328C49.9945 17.8345 50.0359 18.3629 49.9688 18.8824H49.971ZM16.4377 14.7166H33.5671L25.0024 4.63005L16.4377 14.7166ZM46.4309 18.397H3.57389L6.66986 42.3196H43.3349L46.4309 18.397ZM35.0113 23.7336L33.7613 36.615C33.7366 36.8562 33.7584 37.1 33.8254 37.3324C33.8925 37.5649 34.0035 37.7814 34.152 37.9695C34.3005 38.1576 34.4836 38.3136 34.6909 38.4286C34.8981 38.5435 35.1253 38.6151 35.3595 38.6392C35.4197 38.6426 35.4801 38.6426 35.5403 38.6392C35.9826 38.6386 36.409 38.4689 36.7368 38.163C37.0646 37.857 37.2706 37.4365 37.3148 36.983L38.5648 24.1016C38.6122 23.616 38.4704 23.1309 38.1707 22.753C37.871 22.3751 37.4379 22.1354 36.9666 22.0866C36.4954 22.0378 36.0246 22.1839 35.6579 22.4928C35.2912 22.8017 35.0586 23.248 35.0113 23.7336ZM14.9935 23.7336C14.9461 23.248 14.7135 22.8017 14.3468 22.4928C13.9801 22.1839 13.5094 22.0378 13.0381 22.0866C12.5669 22.1354 12.1338 22.3751 11.8341 22.753C11.5343 23.1309 11.3926 23.616 11.4399 24.1016L12.6899 36.983C12.7343 37.4385 12.9419 37.8606 13.2721 38.1668C13.6023 38.4731 14.0314 38.6415 14.4756 38.6392C14.5359 38.6426 14.5962 38.6426 14.6564 38.6392C14.8898 38.615 15.1162 38.5438 15.3228 38.4294C15.5294 38.3151 15.7121 38.1599 15.8605 37.9728C16.0089 37.7857 16.1201 37.5703 16.1877 37.3389C16.2554 37.1075 16.2781 36.8646 16.2546 36.6242L14.9935 23.7336Z" fill="white"/>
</svg>
