<svg width="32" height="28" viewBox="0 0 32 28" fill="none" xmlns="http://www.w3.org/2000/svg">
<path d="M29.5385 0H2.46154C1.8087 0 1.1826 0.268181 0.720968 0.745546C0.25934 1.22291 0 1.87036 0 2.54545V25.4545C0 26.1296 0.25934 26.7771 0.720968 27.2545C1.1826 27.7318 1.8087 28 2.46154 28H29.5385C30.1913 28 30.8174 27.7318 31.279 27.2545C31.7407 26.7771 32 26.1296 32 25.4545V2.54545C32 1.87036 31.7407 1.22291 31.279 0.745546C30.8174 0.268181 30.1913 0 29.5385 0ZM29.5385 25.4545H2.46154V2.54545H29.5385V25.4545ZM24.6154 8.90909C24.6154 9.24664 24.4857 9.57036 24.2549 9.80904C24.0241 10.0477 23.711 10.1818 23.3846 10.1818H8.61539C8.28896 10.1818 7.97591 10.0477 7.7451 9.80904C7.51429 9.57036 7.38462 9.24664 7.38462 8.90909C7.38462 8.57154 7.51429 8.24782 7.7451 8.00914C7.97591 7.77045 8.28896 7.63636 8.61539 7.63636H23.3846C23.711 7.63636 24.0241 7.77045 24.2549 8.00914C24.4857 8.24782 24.6154 8.57154 24.6154 8.90909ZM24.6154 14C24.6154 14.3375 24.4857 14.6613 24.2549 14.9C24.0241 15.1386 23.711 15.2727 23.3846 15.2727H8.61539C8.28896 15.2727 7.97591 15.1386 7.7451 14.9C7.51429 14.6613 7.38462 14.3375 7.38462 14C7.38462 13.6625 7.51429 13.3387 7.7451 13.1C7.97591 12.8614 8.28896 12.7273 8.61539 12.7273H23.3846C23.711 12.7273 24.0241 12.8614 24.2549 13.1C24.4857 13.3387 24.6154 13.6625 24.6154 14ZM24.6154 19.0909C24.6154 19.4285 24.4857 19.7522 24.2549 19.9909C24.0241 20.2295 23.711 20.3636 23.3846 20.3636H8.61539C8.28896 20.3636 7.97591 20.2295 7.7451 19.9909C7.51429 19.7522 7.38462 19.4285 7.38462 19.0909C7.38462 18.7534 7.51429 18.4296 7.7451 18.191C7.97591 17.9523 8.28896 17.8182 8.61539 17.8182H23.3846C23.711 17.8182 24.0241 17.9523 24.2549 18.191C24.4857 18.4296 24.6154 18.7534 24.6154 19.0909Z" fill="black"/>
</svg>
