<svg width="32" height="34" viewBox="0 0 32 34" fill="none" xmlns="http://www.w3.org/2000/svg">
<path d="M31.6369 24.8374C30.7117 23.2747 29.3365 18.8528 29.3365 13.0775C29.3365 9.60912 27.9315 6.28281 25.4305 3.83031C22.9296 1.3778 19.5377 0 16.0008 0C12.464 0 9.07203 1.3778 6.57111 3.83031C4.0702 6.28281 2.6652 9.60912 2.6652 13.0775C2.6652 18.8545 1.28829 23.2747 0.363131 24.8374C0.126874 25.2347 0.00162577 25.6861 1.5721e-05 26.146C-0.00159433 26.6059 0.120491 27.0581 0.353961 27.457C0.58743 27.8559 0.924027 28.1873 1.32981 28.4179C1.73559 28.6485 2.1962 28.7701 2.6652 28.7705H9.46804C9.77571 30.2469 10.5939 31.5737 11.7843 32.5266C12.9747 33.4795 14.4642 34 16.0008 34C17.5375 34 19.027 33.4795 20.2173 32.5266C21.4077 31.5737 22.226 30.2469 22.5336 28.7705H29.3365C29.8053 28.7699 30.2657 28.648 30.6713 28.4173C31.0768 28.1866 31.4132 27.8551 31.6465 27.4563C31.8797 27.0575 32.0017 26.6054 32 26.1456C31.9983 25.6858 31.8731 25.2346 31.6369 24.8374ZM16.0008 31.386C15.1737 31.3857 14.367 31.1341 13.6918 30.6657C13.0165 30.1973 12.5059 29.5352 12.2302 28.7705H19.7715C19.4958 29.5352 18.9852 30.1973 18.3099 30.6657C17.6346 31.1341 16.8279 31.3857 16.0008 31.386ZM2.6652 26.155C3.94875 23.9907 5.33232 18.9754 5.33232 13.0775C5.33232 10.3028 6.45632 7.64175 8.45706 5.67974C10.4578 3.71774 13.1714 2.6155 16.0008 2.6155C18.8303 2.6155 21.5439 3.71774 23.5446 5.67974C25.5453 7.64175 26.6693 10.3028 26.6693 13.0775C26.6693 18.9705 28.0496 23.9857 29.3365 26.155H2.6652Z" fill="black"/>
</svg>
